<svg width="60" height="60" viewBox="0 0 60 60" fill="none" xmlns="http://www.w3.org/2000/svg">
<path fill-rule="evenodd" clip-rule="evenodd" d="M35.12 6.86738L47.4421 13.9818C47.7891 13.6142 48.1943 13.2897 48.6541 13.0227C51.2097 11.5536 54.4692 12.4259 55.9535 14.9814C57.4226 17.537 56.5504 20.7965 53.9948 22.2809C53.5385 22.5431 53.0594 22.7308 52.5716 22.8476V37.0819C53.0541 37.1989 53.528 37.3854 53.9795 37.6449C56.5504 39.1293 57.4226 42.3887 55.9382 44.9443C54.4692 47.4999 51.1944 48.3721 48.6388 46.9031C48.13 46.6106 47.688 46.2466 47.3178 45.8309L35.0709 52.9018C35.2459 53.4308 35.3407 53.9967 35.3407 54.5851C35.3407 57.5232 32.9534 59.9258 30 59.9258C27.0466 59.9258 24.6593 57.5385 24.6593 54.5851C24.6593 54.0601 24.7347 53.553 24.8754 53.074L12.5566 45.9616C12.2133 46.3219 11.8136 46.6403 11.3612 46.9031C8.79032 48.3721 5.53082 47.4999 4.06175 44.9443C2.59268 42.3887 3.46494 39.1293 6.02051 37.6449C6.47236 37.3851 6.94621 37.1986 7.42837 37.0816V22.8476C6.94063 22.7308 6.46146 22.5431 6.00521 22.2809C3.44964 20.8118 2.57738 17.537 4.04645 14.9814C5.51552 12.4259 8.79032 11.5536 11.3459 13.0227C11.8031 13.2883 12.2065 13.6107 12.5522 13.9758L24.8777 6.85947C24.7356 6.37822 24.6593 5.86849 24.6593 5.34068C24.6593 2.38724 27.0466 0 30 0C32.9534 0 35.3407 2.38724 35.3407 5.34068C35.3407 5.87138 35.2636 6.38381 35.12 6.86738ZM33.8362 9.05935L46.1876 16.1907C45.8058 17.5316 45.9459 19.0184 46.6953 20.3221C47.4472 21.63 48.672 22.497 50.0314 22.8349V37.087C49.9621 37.1041 49.8932 37.1224 49.8246 37.1422L33.6928 9.20179C33.7415 9.15522 33.7893 9.10773 33.8362 9.05935ZM26.3106 9.20502L10.179 37.1449C10.1093 37.1247 10.0391 37.1058 9.96863 37.0884V22.8349C11.328 22.497 12.5528 21.63 13.3046 20.3221C14.0555 19.0159 14.1947 17.5257 13.8101 16.1827L26.1581 9.0534C26.2079 9.10496 26.2588 9.15551 26.3106 9.20502ZM31.4922 10.4708L47.6202 38.4044C47.2592 38.7485 46.9411 39.1495 46.68 39.6036C46.4205 40.0551 46.2341 40.529 46.117 41.0115H13.8832C13.7662 40.5293 13.5797 40.0555 13.3199 39.6036C13.0578 39.1524 12.7404 38.7536 12.3813 38.411L28.5122 10.4721C28.9844 10.6083 29.4835 10.6814 30 10.6814C30.5181 10.6814 31.0188 10.6079 31.4922 10.4708ZM33.9496 50.9871L46.2208 43.9021C46.184 43.7864 46.1511 43.6696 46.1222 43.5518H13.8764C13.8593 43.621 13.8408 43.6899 13.821 43.7584L26.1524 50.8782C27.1234 49.8705 28.4874 49.2444 30 49.2444C31.5663 49.2444 32.9734 49.9158 33.9496 50.9871Z" fill="white"/>
</svg>
