<svg width="60" height="60" viewBox="0 0 60 60" fill="none" xmlns="http://www.w3.org/2000/svg">
<path d="M51 0C55.971 0 60 4.029 60 9V51C60 55.971 55.971 60 51 60H9C4.029 60 0 55.971 0 51V9C0 4.029 4.029 0 9 0H51ZM37.969 43.359L33.281 46.055C34.922 49.336 38.32 51.797 43.594 51.797C48.984 51.797 52.969 48.984 52.969 43.945C52.969 39.141 50.273 37.148 45.469 35.039L44.062 34.453C41.602 33.398 40.547 32.695 40.547 31.055C40.547 29.648 41.602 28.594 43.242 28.594C44.883 28.594 45.938 29.297 46.875 31.055L51.211 28.242C49.453 24.961 46.875 23.672 43.242 23.672C38.203 23.672 35.039 26.953 35.039 31.172C35.039 35.742 37.734 37.852 41.836 39.609L43.242 40.195C45.82 41.367 47.344 42.07 47.344 43.945C47.344 45.586 45.82 46.758 43.477 46.758C40.781 46.758 39.141 45.352 37.969 43.359ZM18.047 43.828L13.477 46.289C14.766 49.102 17.344 51.445 21.914 51.445C26.953 51.445 30.352 48.867 30.352 43.008V23.789H24.727V43.242C24.727 46.055 23.555 46.758 21.68 46.758C19.688 46.758 18.984 45.352 18.047 43.828Z" fill="white"/>
</svg>
