<svg width="146" height="41" viewBox="0 0 146 41" fill="none" xmlns="http://www.w3.org/2000/svg">
<path d="M10.9764 4.23536C9.53822 2.34312 8.29979 0.421319 8.04679 0.0221747C8.02015 -0.00739157 7.98019 -0.00739157 7.95356 0.0221747C7.70055 0.421319 6.46214 2.34312 5.02397 4.23536C-7.32024 21.6942 6.96817 33.4764 6.96817 33.4764L7.08801 33.5651C7.19453 35.3833 7.46086 38 7.46086 38H7.99351H8.52616C8.52616 38 8.7925 35.3981 8.89903 33.5651L9.01887 33.4616C9.03218 33.4764 23.3206 21.6942 10.9764 4.23536ZM7.99351 33.2102C7.99351 33.2102 7.35434 32.6041 7.18122 32.2938V32.2641L7.95356 13.2531C7.95356 13.1939 8.03347 13.1939 8.03347 13.2531L8.8058 32.2641V32.2938C8.6327 32.6041 7.99351 33.2102 7.99351 33.2102Z" fill="white"/>
<path d="M35.6322 29.4054L29.7342 13.0452L29.721 13H25.1322V14.0997H25.8728C26.0975 14.0997 26.3091 14.2052 26.4679 14.3859C26.6265 14.5667 26.7059 14.8078 26.7059 15.0639L26.5737 31.5295C26.5737 32.0416 26.2035 32.4634 25.7538 32.4785L25 32.4936V33.5782H29.4698V32.4936L29.0069 32.4785C28.5573 32.4634 28.187 32.0416 28.187 31.5295V16.0129L34.614 33.5782C34.7065 33.8343 34.9181 34 35.1562 34C35.3942 34 35.6058 33.8343 35.6984 33.5782L41.9799 16.4045L42.0725 31.5295C42.0725 32.0568 41.7021 32.4786 41.2393 32.4936H40.7632V33.5782H46V32.4936H45.2859C44.8363 32.4936 44.4659 32.0568 44.4527 31.5445L44.4131 15.0789C44.4131 14.5516 44.7833 14.1298 45.233 14.1148L46 14.0997V13H41.5302L35.6322 29.4054Z" fill="white"/>
<path d="M77.9054 31.7464C77.7567 31.5916 77.6757 31.3803 77.6757 31.1268V23.5774C77.6757 22.1409 77.2703 21.014 76.4594 20.2113C75.6622 19.4084 74.5541 19 73.1757 19C71.2432 19 69.7163 19.8169 68.6486 21.4226C68.6352 21.4507 68.5946 21.4648 68.5541 21.4648C68.5135 21.4648 68.4865 21.4366 68.4865 21.3944L67.9864 19.3802H67.1486L65 20.6619V21.3661H65.5541C65.8108 21.3661 66.027 21.4366 66.1757 21.5775C66.3243 21.7184 66.4054 21.9296 66.4054 22.2253V31.1127C66.4054 31.3662 66.3243 31.5775 66.1757 31.7324C66.027 31.8873 65.8244 31.9718 65.5811 31.9718H65.0405V33H69.9864V31.9718H69.4459C69.2027 31.9718 69 31.8873 68.8513 31.7324C68.7027 31.5775 68.6216 31.3662 68.6216 31.1127V25.2254C68.6216 24.4789 68.7838 23.7324 69.0811 22.9999C69.3918 22.2817 69.8513 21.6761 70.4595 21.2113C71.0675 20.7465 71.7973 20.5211 72.6351 20.5211C73.5811 20.5211 74.2973 20.8309 74.7432 21.4507C75.1892 22.0705 75.419 22.8732 75.419 23.831V31.0987C75.419 31.3521 75.3378 31.5633 75.1892 31.7183C75.0406 31.8733 74.8378 31.9577 74.5946 31.9577H74.0541V32.9859H79V31.9577H78.4595C78.2568 31.986 78.0675 31.9014 77.9054 31.7464Z" fill="white"/>
<path d="M124.346 14.1988C122.933 13.4093 121.353 13 119.649 13H113V14.0672H113.651C113.9 14.0672 114.122 14.1696 114.344 14.4035C114.552 14.6228 114.662 14.8714 114.662 15.1345V30.8655C114.662 31.1286 114.552 31.3772 114.344 31.5965C114.136 31.8158 113.9 31.9327 113.651 31.9327H113V33H119.649C121.353 33 122.933 32.5907 124.346 31.8012C125.758 31.0117 126.908 29.842 127.739 28.3509C128.571 26.8597 129 25.0615 129 23.0146C129 20.9679 128.571 19.1842 127.739 17.6784C126.894 16.158 125.758 15.0029 124.346 14.1988ZM126.326 22.9854C126.326 24.8568 126.008 26.4356 125.384 27.7076C124.761 28.9796 123.93 29.9298 122.905 30.5439C121.88 31.158 120.744 31.465 119.525 31.465H118.181C117.932 31.465 117.71 31.3626 117.488 31.1286C117.28 30.9093 117.17 30.6609 117.17 30.3977V15.5585C117.17 15.2953 117.267 15.0615 117.488 14.8274C117.696 14.6082 117.932 14.4912 118.181 14.4912H119.525C120.744 14.4912 121.88 14.7982 122.905 15.4123C123.93 16.0263 124.761 16.9766 125.384 18.2485C126.008 19.535 126.326 21.1286 126.326 22.9854Z" fill="white"/>
<path d="M144.885 24.0527C144.271 23.307 143.086 22.6784 141.693 22.342C143.617 21.3333 144.606 19.9152 144.606 18.0877C144.606 17.0936 144.356 16.2018 143.853 15.4415C143.351 14.6813 142.64 14.0672 141.735 13.6433C140.828 13.2193 139.768 13 138.569 13H131.056V14.0672H131.655C131.906 14.0672 132.129 14.1696 132.352 14.4035C132.561 14.6228 132.673 14.8714 132.673 15.1345V30.8655C132.673 31.1286 132.561 31.3772 132.352 31.5965C132.143 31.8158 131.906 31.9327 131.655 31.9327H131V33H139.156C140.396 33 141.553 32.7807 142.599 32.342C143.644 31.9035 144.481 31.2603 145.081 30.4123C145.693 29.5644 146 28.5263 146 27.3274C145.986 26.0409 145.624 24.9444 144.885 24.0527ZM135.531 31.1432C135.322 30.9239 135.21 30.6755 135.21 30.4123V23.3508H139.086C140.451 23.3508 141.497 23.7164 142.222 24.4473C142.947 25.1784 143.31 26.1286 143.31 27.2982C143.31 28 143.142 28.6872 142.836 29.3158C142.515 29.9591 142.04 30.4708 141.4 30.8655C140.772 31.2603 139.992 31.465 139.086 31.465H136.228C135.977 31.465 135.754 31.3626 135.531 31.1432ZM135.224 21.845V15.5731C135.224 15.3099 135.322 15.0761 135.545 14.842C135.754 14.6228 135.991 14.5058 136.242 14.5058H138.082C139.406 14.5058 140.382 14.8568 140.996 15.5292C141.608 16.2163 141.915 17.0936 141.915 18.1755C141.915 19.2866 141.622 20.1784 141.051 20.8508C140.479 21.5088 139.615 21.845 138.472 21.845H135.224Z" fill="white"/>
<path d="M59.5345 19.9394C58.4713 19.3229 57.284 19 56 19C54.716 19 53.5148 19.3082 52.4655 19.9394C51.4023 20.5557 50.5601 21.451 49.9388 22.5812C49.3176 23.7113 49 25.0324 49 26.5C49 27.9676 49.3176 29.2887 49.9388 30.4188C50.5601 31.549 51.4023 32.4443 52.4655 33.0607C53.5287 33.6771 54.716 34 56 34C57.284 34 58.4852 33.6918 59.5345 33.0607C60.5977 32.4443 61.4399 31.549 62.0612 30.4188C62.6824 29.2887 63 27.9676 63 26.5C63 25.0324 62.6824 23.7113 62.0612 22.5812C61.4399 21.451 60.5977 20.5557 59.5345 19.9394ZM60.5562 26.5C60.5562 28.3053 60.1421 29.7729 59.3136 30.8297C58.4991 31.8865 57.3807 32.4296 56 32.4296C54.6194 32.4296 53.5009 31.8865 52.6864 30.8297C51.8579 29.7729 51.4438 28.3053 51.4438 26.5C51.4438 24.6947 51.8579 23.2271 52.6864 22.1703C53.5009 21.1135 54.6194 20.5704 56 20.5704C57.3807 20.5704 58.4991 21.1135 59.3136 22.1703C60.1421 23.2271 60.5562 24.6947 60.5562 26.5Z" fill="white"/>
<path d="M107.535 19.9394C106.471 19.3229 105.284 19 104 19C102.716 19 101.515 19.3082 100.465 19.9394C99.4023 20.5557 98.5601 21.451 97.9388 22.5812C97.3176 23.7113 97 25.0324 97 26.5C97 27.9676 97.3176 29.2887 97.9388 30.4188C98.5601 31.549 99.4023 32.4443 100.465 33.0607C101.529 33.6771 102.716 34 104 34C105.284 34 106.485 33.6918 107.535 33.0607C108.598 32.4443 109.44 31.549 110.061 30.4188C110.682 29.2887 111 27.9676 111 26.5C111 25.0324 110.682 23.7113 110.061 22.5812C109.44 21.451 108.584 20.5557 107.535 19.9394ZM108.556 26.5C108.556 28.3053 108.142 29.7729 107.314 30.8297C106.499 31.8865 105.381 32.4296 104 32.4296C102.619 32.4296 101.501 31.8865 100.686 30.8297C99.8579 29.7729 99.4438 28.3053 99.4438 26.5C99.4438 24.68 99.8579 23.2271 100.686 22.1703C101.501 21.1135 102.619 20.5704 104 20.5704C105.381 20.5704 106.499 21.1135 107.314 22.1703C108.128 23.2271 108.556 24.6947 108.556 26.5Z" fill="white"/>
<path d="M88.045 19C86.9581 19 85.9666 19.2466 85.07 19.74C84.1734 20.2334 83.4671 20.9011 82.9644 21.7572C82.4619 22.5989 82.2038 23.5423 82.2038 24.5436C82.2038 25.4432 82.3939 26.2704 82.7879 27.0106C83.1682 27.7217 83.6845 28.3166 84.3365 28.81L82.3939 31.6254C82.1494 31.9736 82.1223 32.4379 82.2989 32.8153C82.489 33.2071 82.8422 33.4394 83.2498 33.4394H83.8067C83.2633 33.8312 82.8286 34.2955 82.5297 34.8469C82.1766 35.4709 82 36.124 82 36.7915C82 38.0396 82.5162 39.0699 83.535 39.8391C84.5403 40.6082 85.9529 41 87.7325 41C88.9687 41 90.1505 40.7823 91.2236 40.3614C92.3104 39.9407 93.1933 39.3166 93.8453 38.504C94.511 37.6913 94.8506 36.7045 94.8506 35.5725C94.8506 34.3826 94.443 33.5408 93.4921 32.7283C92.6772 32.0461 91.4002 31.6834 89.8108 31.6834H84.3772C84.3637 31.6834 84.35 31.6688 84.35 31.6688C84.35 31.6688 84.3365 31.6399 84.35 31.6254L85.7628 29.5937C86.1432 29.7823 86.4964 29.8984 86.8088 29.9709C87.1347 30.0436 87.5016 30.0725 87.909 30.0725C89.0502 30.0725 90.0826 29.8259 90.9791 29.3325C91.8757 28.8391 92.5957 28.1715 93.1119 27.3153C93.628 26.4736 93.8861 25.5304 93.8861 24.5291C93.8861 23.4551 93.3971 21.496 92.0658 20.4947C92.0658 20.4802 92.0795 20.4802 92.0795 20.4802L95 20.8285V19.3918H90.327C89.5935 19.1452 88.8329 19 88.045 19ZM89.675 28.0844C89.1588 28.3746 88.6018 28.5343 88.045 28.5343C87.1349 28.5343 86.3333 28.186 85.6541 27.504C84.975 26.8219 84.6353 25.8206 84.6353 24.5436C84.6353 23.2666 84.975 22.2651 85.6541 21.5831C86.3333 20.9011 87.1349 20.5527 88.045 20.5527C88.6155 20.5527 89.1588 20.6979 89.675 21.0026C90.1912 21.2929 90.6124 21.7428 90.952 22.3378C91.2779 22.9328 91.4545 23.6728 91.4545 24.5436C91.4545 25.4288 91.2915 26.1688 90.952 26.7494C90.6259 27.3444 90.1912 27.7942 89.675 28.0844ZM85.9937 33.4248H89.675C90.6939 33.4248 91.3459 33.6424 91.7806 34.1069C92.2153 34.5712 92.4326 35.1952 92.4326 35.9209C92.4326 36.9802 92.0387 37.851 91.2509 38.504C90.4629 39.1571 89.4034 39.4908 88.0993 39.4908C86.9581 39.4908 86.0073 39.2151 85.3145 38.6926C84.6217 38.1703 84.2685 37.372 84.2685 36.3563C84.2685 35.7177 84.4315 35.1227 84.7576 34.6003C85.0836 34.0778 85.4775 33.7005 85.9937 33.4248Z" fill="white"/>
</svg>
