<svg width="60" height="60" viewBox="0 0 60 60" fill="none" xmlns="http://www.w3.org/2000/svg">
<g clip-path="url(#clip0_1_22)">
<path d="M44.5294 56.2594C44.3063 56.3775 44.325 56.415 44.5387 56.3062C44.6081 56.2781 44.6663 56.2387 44.7169 56.1919C44.7169 56.1525 44.7169 56.1525 44.5294 56.2594ZM44.9794 56.0156C44.8725 56.1037 44.8725 56.1037 45 56.0456C45.0675 56.0062 45.1275 55.9687 45.1275 55.9575C45.1275 55.9069 45.0975 55.9181 44.9794 56.0156ZM45.2719 55.8394C45.165 55.9275 45.165 55.9275 45.2925 55.8694C45.3619 55.83 45.42 55.7887 45.42 55.7794C45.42 55.7325 45.39 55.7419 45.2719 55.8394ZM45.5681 55.665C45.4613 55.7531 45.4613 55.7531 45.585 55.6931C45.6544 55.6556 45.7125 55.6162 45.7125 55.605C45.7125 55.5581 45.6825 55.5675 45.5681 55.665ZM45.9675 55.4006C45.7631 55.5375 45.6919 55.6256 45.8794 55.5281C46.005 55.4512 46.2188 55.2825 46.1812 55.2825C46.1006 55.3125 46.0331 55.3631 45.9656 55.4006H45.9675ZM28.0369 0.0206172C27.9 0.0299922 27.4894 0.0674922 27.1294 0.0974922C18.6019 0.869992 10.6238 5.45999 5.56687 12.5306C2.77125 16.4062 0.95625 20.9081 0.271875 25.635C0.03 27.285 0 27.7725 0 30.0094C0 32.2444 0.03 32.7244 0.271875 34.3744C1.905 45.645 9.9225 55.1062 20.79 58.6125C22.7456 59.2369 24.795 59.6681 27.1294 59.9325C28.0369 60.03 31.9613 60.03 32.8688 59.9325C36.9038 59.4825 40.3106 58.4869 43.6819 56.7675C44.1994 56.505 44.2969 56.4356 44.2275 56.3775C42.5775 54.2006 40.9575 52.0219 39.3356 49.8244L34.5413 43.35L28.5356 34.4531C26.5331 31.4756 24.5231 28.5056 22.4812 25.5581C22.4606 25.5581 22.4344 29.5125 22.4231 34.335C22.4025 42.7819 22.4025 43.125 22.2956 43.32C22.1887 43.5544 22.0125 43.7494 21.7781 43.8581C21.5925 43.9462 21.4256 43.965 20.5388 43.965H19.5244L19.26 43.8C19.095 43.6931 18.9581 43.545 18.87 43.3706L18.7425 43.1062L18.7519 31.3481L18.7725 19.59L18.9581 19.3556C19.0763 19.2112 19.2225 19.0931 19.3875 19.005C19.6331 18.8869 19.7306 18.8681 20.745 18.8681C21.9356 18.8681 22.1325 18.915 22.4456 19.2581C24.8756 22.8806 27.2981 26.5125 29.6812 30.1556C33.5794 36.0656 38.9006 44.13 41.5163 48.0862L46.2731 55.2844L46.5075 55.1287C48.7931 53.6044 50.8725 51.7894 52.6669 49.7194C56.4469 45.3919 58.8994 40.0687 59.73 34.3875C59.9719 32.7375 60.0019 32.2481 60.0019 30.0131C60.0019 27.7762 59.9719 27.2981 59.73 25.6481C58.0969 14.3775 50.0794 4.91624 39.2119 1.40812C37.1794 0.764992 35.0887 0.326242 32.9719 0.101242C32.4037 0.0431172 28.5263 -0.0262578 28.0388 0.0243672L28.0369 0.0206172ZM40.3125 18.165C40.5956 18.3 40.8094 18.555 40.9069 18.8475C40.9575 19.005 40.9669 22.2656 40.9575 29.61L40.9369 40.155L39.0825 37.305L37.2169 34.4531V26.7975C37.2169 21.8344 37.2375 19.0519 37.2638 18.915C37.3519 18.6019 37.5656 18.3394 37.8506 18.1744C38.0831 18.0562 38.1731 18.0469 39.1012 18.0469C39.9694 18.0469 40.1175 18.0562 40.3125 18.165Z" fill="white"/>
</g>
<defs>
<clipPath id="clip0_1_22">
<rect width="60" height="60" fill="white"/>
</clipPath>
</defs>
</svg>
