<svg width="60" height="60" viewBox="0 0 60 60" fill="none" xmlns="http://www.w3.org/2000/svg">
<path d="M32.1984 4.3101C30.8676 3.56162 29.1324 3.56498 27.8004 4.3101C21.1292 7.99176 14.4578 11.6745 7.7853 15.3545C6.48692 16.0375 5.6112 17.4318 5.62516 18.879V41.124C5.61579 42.5994 6.53666 44.0072 7.86853 44.6809C9.78508 45.7005 11.6471 46.8236 13.5983 47.7754C15.8522 48.8829 18.6721 49.1278 20.9535 47.9728C22.8054 47.0156 23.628 44.8866 23.6256 42.93C23.6406 35.5886 23.628 28.2471 23.6314 20.9055C23.6754 20.5793 23.4304 20.2305 23.0745 20.2384C22.2219 20.2249 21.3682 20.2305 20.5157 20.2361C20.1936 20.2058 19.8791 20.4733 19.9035 20.7971C19.8921 28.0913 19.9057 35.3876 19.8966 42.6829C19.9151 43.692 19.2334 44.6618 18.2609 45.0026C16.0147 45.7899 9.60371 41.6273 9.60371 41.6273C9.36843 41.5183 9.21903 41.2631 9.2421 41.0096C9.2421 33.6705 9.24324 26.3312 9.2421 18.9932C9.20975 18.6973 9.3921 18.4309 9.66378 18.3101C16.3131 14.6501 22.959 10.981 29.6083 7.3188C29.8393 7.16466 30.1612 7.16513 30.3917 7.31993C37.041 10.981 43.6881 14.6468 50.3385 18.3069C50.6111 18.4275 50.7857 18.6984 50.7579 18.9932C50.7568 26.3312 50.7602 33.6705 50.7557 41.0087C50.7754 41.2684 50.6411 41.52 50.3987 41.634C43.8114 45.2741 37.1492 48.7969 30.6216 52.5428C30.3367 52.7061 30.0141 52.8911 29.6949 52.7111C27.9784 51.7616 26.2826 50.7752 24.5717 49.8165C24.3857 49.7004 24.1489 49.6506 23.9548 49.7805C23.1877 50.1848 22.4662 50.5121 21.5854 50.8609C20.3482 51.3506 20.5459 51.5509 21.6617 52.2009C23.6625 53.3333 25.6667 54.4611 27.6675 55.5945C28.9847 56.4165 30.7545 56.475 32.1141 55.7154C38.7864 52.0384 45.4567 48.357 52.1304 44.6799C53.4587 44.0025 54.3842 42.6004 54.3748 41.1238V18.879C54.3877 17.4612 53.5455 16.0918 52.2862 15.3986C45.5917 11.699 38.8941 8.00745 32.1984 4.3101Z" fill="white"/>
<path d="M42.2661 21.0116C39.6473 19.6106 36.5318 19.536 33.6216 19.7192C31.5191 19.9269 29.308 20.5071 27.7763 22.0142C26.2052 23.5292 25.8632 25.9757 26.6095 27.9534C27.1442 29.3511 28.4903 30.2599 29.8823 30.7406C31.6753 31.3736 33.5586 31.5694 35.4424 31.7651C37.1606 31.9436 38.8795 32.1223 40.531 32.6329C41.2056 32.8564 41.9912 33.1984 42.1978 33.9324C42.3887 34.8017 42.1795 35.8121 41.4737 36.4161C39.232 38.1904 32.9961 37.9185 30.7811 36.522C29.8856 35.9271 29.4998 34.8739 29.3428 33.8702C29.3254 33.5574 29.0736 33.2706 28.734 33.2944C27.8837 33.2842 27.0334 33.2865 26.1831 33.2932C25.8865 33.2683 25.578 33.4794 25.5617 33.7822C25.387 38.3792 29.6089 40.3832 33.5698 40.8244C35.8328 41.04 38.1454 41.0276 40.3738 40.542C42.049 40.1606 43.7286 39.4583 44.8817 38.1681C46.3037 36.6 46.5833 34.2654 45.9456 32.3122C45.4581 30.8548 44.0648 29.9199 42.6405 29.439C40.7036 28.7749 38.4083 28.4179 36.654 28.2508C34.1042 28.008 31.0742 28.1072 30.3525 26.4317C30.0647 25.5544 30.3096 24.465 31.1158 23.9254C33.249 22.4784 37.5906 22.6706 39.7997 23.7516C40.8141 24.2595 41.4019 25.3027 41.6445 26.3559C41.6895 26.6653 41.8976 26.9882 42.2558 26.9747C43.1003 26.9916 43.9448 26.9792 44.7891 26.9803C45.0791 27.0006 45.3968 26.8369 45.4534 26.5399C45.4176 24.3386 44.2935 22.0852 42.2661 21.0116Z" fill="white"/>
</svg>
