<svg width="100" height="69" viewBox="0 0 100 69" fill="none" xmlns="http://www.w3.org/2000/svg">
<path d="M76.9657 34.3876C75.8279 34.8232 73.9237 35.15 72.1157 35.2204C70.1177 35.2974 69.1006 35.0354 68.8618 34.8749C68.7495 32.9689 69.6088 32.7699 70.5178 32.5586C70.6605 32.5257 70.7998 32.4938 70.9348 32.4544C71.0184 32.5107 71.1095 32.567 71.21 32.6215C72.8162 33.4966 75.6794 33.5905 79.7225 32.9013L79.7672 32.8938C79.2219 33.3154 78.2884 33.8796 76.9657 34.3876ZM33.8478 35.5068C32.2719 37.071 31.1839 36.7705 30.826 36.6729C28.4946 36.0307 25.7894 31.9624 23.404 25.5111C21.3402 19.9293 20.134 14.3156 20.0387 12.742C19.7373 7.76389 21.1984 4.29463 24.3831 2.42995C29.5649 -0.603661 38.085 1.21219 41.5086 2.13326C41.4596 2.17363 41.4082 2.21119 41.36 2.25156C35.7419 6.93578 35.8752 14.9381 35.8887 15.4273C35.8887 15.616 35.9073 15.8836 35.9335 16.2507C36.0305 17.5971 36.2103 20.1021 35.7301 22.9385C35.2835 25.575 36.2677 28.1551 38.4303 30.0179C38.6522 30.2085 38.8852 30.3907 39.1291 30.5625C38.1669 31.4131 36.0744 33.2956 33.8478 35.5068ZM40.1361 37.2503C39.5942 37.1386 39.108 36.9442 38.8227 36.7837C39.0608 36.6917 39.4854 36.5649 40.2214 36.44C43.7834 35.8345 44.3337 35.4073 45.5348 34.1482C45.81 33.8599 46.1223 33.5322 46.5553 33.1332C47.1994 32.5379 47.4939 32.6393 48.0282 32.8215C48.4613 32.9698 48.8825 33.4177 49.0538 33.9106C49.134 34.1435 49.2251 34.5857 48.928 34.9293C46.4186 37.8296 42.7621 37.793 40.1361 37.2503ZM65.7302 0.00475182C71.4277 0.108971 75.9351 1.86849 79.1257 5.23447C81.5735 7.81647 78.8784 19.566 71.0766 29.7015C70.9981 29.6189 70.9188 29.5372 70.8394 29.4546L70.7407 29.3532C72.7572 26.604 72.363 23.885 72.0118 21.4738C71.8675 20.4842 71.7316 19.5491 71.7662 18.6712C71.8017 17.7407 71.9511 16.9427 72.0954 16.1709C72.2727 15.2207 72.4525 14.2367 72.4027 13.0762C72.4398 12.9551 72.455 12.8105 72.4356 12.6406C72.309 11.528 70.7702 8.19861 67.6353 5.18565C65.9201 3.53787 63.4183 1.69385 60.004 0.449794C61.4727 0.198166 63.4816 -0.0365602 65.7302 0.00475182ZM39.8517 28.894C38.1087 27.3918 37.3169 25.3036 37.679 23.1639C38.1863 20.1669 37.9998 17.5567 37.8985 16.1549C37.885 15.9587 37.8723 15.7859 37.8647 15.6507C38.6852 15.0498 42.4886 13.3673 45.2014 13.8809C46.4389 14.1147 47.1935 14.8104 47.5066 16.0075C49.1289 22.2034 47.721 24.7863 46.5899 26.8613C46.357 27.2885 46.1367 27.6932 45.9484 28.111L45.8024 28.434C45.4336 29.2508 45.09 30.0113 44.8773 30.7324C43.0246 30.7277 41.2216 30.0742 39.8517 28.894ZM44.9052 14.7259C44.1894 14.6433 43.5411 14.7193 43.2128 14.925C43.0288 15.0404 42.9714 15.1738 42.9562 15.2658C42.9148 15.509 43.1216 15.7784 43.2491 15.9174C43.6087 16.3108 44.1337 16.5812 44.6536 16.6403C44.7288 16.6497 44.8039 16.6535 44.8782 16.6535C45.745 16.6535 46.5325 16.0967 46.6026 15.6855C46.6887 15.17 45.7839 14.8264 44.9052 14.7259ZM58.7767 51.5706C54.4196 52.3414 52.8766 50.5058 51.8595 48.4074C51.2037 47.0525 50.8812 40.944 51.11 34.1979C51.1125 34.1087 51.0973 34.0224 51.0678 33.9407C51.0408 33.7792 51.0002 33.6196 50.9454 33.4637C50.6052 32.4825 49.7763 31.661 48.7812 31.3211C48.3861 31.1859 47.6611 30.9371 46.7891 31.1211C46.9748 30.4892 47.2973 29.7747 47.6467 29.002L47.7936 28.6771C47.9582 28.31 48.1658 27.9298 48.3844 27.5279C49.5687 25.3572 51.1902 22.3827 49.4303 15.6639C48.771 13.1476 46.5697 11.9186 43.233 12.204C41.2326 12.3749 39.4026 13.0415 38.4893 13.4236C38.2935 13.5053 38.1137 13.5842 37.9466 13.6621C38.2007 11.1261 39.1638 6.38745 42.7646 3.38952C45.0318 1.50231 48.051 0.569975 51.7295 0.620676C58.9776 0.718323 63.6259 3.78949 66.2485 6.34802C68.5098 8.55352 69.7337 10.775 70.2216 11.973C66.5481 11.6641 64.0497 12.2631 62.7836 13.7579C60.0276 17.0093 64.2911 23.3207 66.3397 26.3533C66.7153 26.9092 67.0394 27.3899 67.1415 27.5936C67.8083 28.9288 68.6727 29.8198 69.3032 30.4705C69.4965 30.6695 69.6839 30.8629 69.8265 31.0319C68.714 31.2967 66.7153 31.9089 66.8976 34.9669C66.7507 36.5011 65.7057 43.6856 65.1748 46.2244C64.4751 49.5773 62.9802 50.8269 58.7767 51.5706ZM70.4427 13.6283C70.4258 14.432 70.2925 15.1616 70.1498 15.9239C69.997 16.7436 69.8392 17.5905 69.7987 18.6196C69.7598 19.6204 69.9109 20.6607 70.0578 21.6673C70.3532 23.7 70.6571 25.7928 69.4821 27.8584C69.2863 27.5721 69.1124 27.2772 68.9613 26.974C68.8145 26.682 68.498 26.2125 68.0582 25.5619C66.3489 23.0324 62.3472 17.107 64.3957 14.6893C65.006 13.9691 66.5549 13.2293 70.4427 13.6283ZM68.617 14.7419C68.5486 14.3381 67.6784 14.2236 66.8528 14.3184C66.0273 14.4132 65.228 14.7203 65.2947 15.1249C65.3487 15.4395 66.0366 15.9765 66.8512 15.9765C66.9204 15.9765 66.9896 15.9728 67.0596 15.9643C67.6032 15.9024 68.0025 15.6179 68.1916 15.4536C68.4802 15.2029 68.6474 14.924 68.617 14.7419Z" fill="white"/>
<path d="M6.24339 61.3532H1.40046V57.2672H6.5157C8.38708 57.2672 9.32482 57.9581 9.32482 59.3421C9.32482 60.6826 8.30109 61.3532 6.25294 61.3532M9.73977 57.2291C9.07434 56.7302 8.1448 56.481 6.94908 56.481L0 56.5132V66.2963H1.40046L1.38818 62.1358H6.55801C7.85474 62.1358 8.8771 61.8867 9.62033 61.3878C10.3636 60.8889 10.7376 60.1986 10.7376 59.3129C10.7376 58.4278 10.4052 57.7375 9.73977 57.2386V57.2291ZM18.8025 64.2268C18.664 64.5528 18.4346 64.8395 18.1384 65.0583C17.5112 65.5703 16.5551 65.8254 15.2686 65.8254C14.1063 65.8254 13.2143 65.5762 12.5926 65.0773C11.9708 64.5784 11.6589 63.9132 11.6589 63.0776C11.6589 62.6431 11.7401 62.2568 11.9033 61.92C12.0623 61.588 12.3052 61.2954 12.6103 61.0665C13.2546 60.5753 14.1384 60.3298 15.2686 60.3298C17.7679 60.3298 19.0175 61.2459 19.0175 63.077C19.0175 63.5121 18.9451 63.8936 18.8046 64.2238M19.0584 60.6177C18.206 59.9656 16.9414 59.6389 15.2686 59.6389C13.6886 59.6389 12.4656 59.9721 11.605 60.6367C10.827 61.2387 10.4386 62.0512 10.4386 63.0728C10.4386 64.0944 10.8399 64.9075 11.6446 65.5309C12.0991 65.8725 12.6274 66.1216 13.1945 66.2611C13.7842 66.4113 14.4762 66.4864 15.2706 66.4864C16.9345 66.4864 18.2026 66.1639 19.0728 65.5196C19.8508 64.9313 20.2391 64.1153 20.2391 63.0716C20.2391 62.0214 19.8467 61.2018 19.0591 60.6135L19.0584 60.6177ZM29.6486 64.5087C29.6486 65.8248 28.2406 66.4816 25.424 66.4816C24.5634 66.4816 23.8386 66.4357 23.2496 66.3445C22.6599 66.2533 22.1815 66.1008 21.8143 65.8898C21.5304 65.7288 21.295 65.5184 21.1387 65.2597C20.9626 64.9569 20.852 64.6249 20.8131 64.2834L22.1235 64.2739C22.1235 64.7918 22.3521 65.1721 22.8114 65.4177C23.3035 65.7121 24.1757 65.8594 25.426 65.8594C27.3943 65.8594 28.3792 65.4469 28.3792 64.6124C28.3792 64.1296 28.0495 63.797 27.3896 63.6146C27.2544 63.5795 26.46 63.4871 25.0009 63.3267L22.275 62.9244C21.4983 62.6651 21.1107 62.2002 21.1107 61.5278C21.1107 60.8698 21.4581 60.3798 22.1522 60.0586C22.4954 59.9239 22.924 59.8225 23.4386 59.7486C23.9532 59.6747 24.549 59.6383 25.2268 59.6383C27.9369 59.6383 29.2814 60.35 29.2814 61.774H28.0338C28.0338 60.7738 27.0818 60.2731 25.1749 60.2731C24.2058 60.2731 23.4823 60.3751 23.0059 60.5771C22.5296 60.7798 22.2921 61.0915 22.2921 61.5111C22.2921 61.895 22.604 62.1865 23.2564 62.3611C23.6332 62.4523 24.4979 62.5578 25.8519 62.6758C27.064 62.767 27.8946 62.8964 28.3471 63.0645C29.2077 63.344 29.6377 63.8203 29.6377 64.4914L29.6486 64.5087ZM34.7925 66.2909L34.2595 66.3529L33.9264 66.3743C33.074 66.3743 32.4584 66.2706 32.0817 66.0632C31.7042 65.8564 31.5159 65.4934 31.5159 64.9748V60.5151H29.9612V59.8589H31.5036L31.5159 57.7518H32.7116V59.8589H34.7904V60.5253L32.7116 60.5157V64.855C32.7116 65.1781 32.8133 65.4016 33.0194 65.5244C33.2248 65.6472 33.5906 65.7086 34.1161 65.7086C34.1905 65.7151 34.2752 65.7133 34.3653 65.702C34.456 65.6901 34.5939 65.6633 34.7795 65.6233L34.7918 66.2927L34.7925 66.2909ZM43.0554 64.8115C42.7175 65.041 42.3408 65.2144 41.9395 65.3259C41.5218 65.4445 41.0413 65.5041 40.4988 65.5041C38.0002 65.5041 36.7512 64.641 36.7512 62.9149C36.7512 62.1108 37.0706 61.4807 37.7101 61.0271C38.3496 60.5736 39.2491 60.3554 40.41 60.3554C41.5798 60.3554 42.4684 60.5861 43.0717 61.0426C43.6744 61.4986 43.9801 62.1138 43.9801 62.8839C43.9801 63.7231 43.6716 64.3704 43.0533 64.824M45.1738 59.875H43.9835L43.9713 60.9783C43.4451 60.53 43.0683 60.2475 42.8431 60.1283C42.1743 59.8213 41.3096 59.6681 40.2476 59.6681C38.6929 59.6681 37.5061 59.9554 36.6871 60.5598C35.909 61.1064 35.5207 61.8962 35.5207 62.9309C35.5207 63.4412 35.6197 63.8977 35.8155 64.2995C36.01 64.6988 36.3049 65.0493 36.6755 65.3217C37.5074 65.8957 38.6554 66.1824 40.1541 66.1824C41.9531 66.1824 43.2314 65.7699 43.9849 64.9355V66.0865C43.9849 66.8154 43.7099 67.3775 43.153 67.7763C42.5954 68.1756 41.7047 68.3747 40.4496 68.3747C39.271 68.3747 38.4308 68.2388 37.9292 67.967C37.5531 67.7584 37.3054 67.3954 37.1518 66.8804H35.9227C36.0578 67.5998 36.4223 68.1214 37.0147 68.4438C37.7006 68.814 38.8581 69 40.4892 69C43.6082 69 45.1677 68.0296 45.1677 66.0882V59.8541L45.1738 59.875ZM51.6376 60.5223C51.3059 60.4758 50.9708 60.4514 50.6351 60.4496C48.6722 60.4496 47.6908 61.3514 47.6908 63.1545V66.2885H46.5101L46.4971 59.875L47.6929 59.8845V61.0289H47.7556C47.9379 60.5974 48.2736 60.2362 48.7077 60.0037C49.1841 59.7784 49.8932 59.6652 50.8391 59.6652H51.6397V60.5235L51.6376 60.5223ZM52.748 62.6651C52.8989 61.9361 53.2367 61.3723 53.7629 60.9723C54.1055 60.7422 54.4938 60.5676 54.9272 60.4514C55.3606 60.3357 55.8506 60.2791 56.383 60.2791C57.4429 60.2791 58.3103 60.5223 58.9819 61.0099C59.6534 61.4968 59.9906 62.0488 59.9906 62.6663H52.7337M60.1066 60.6874C59.6889 60.3363 59.1709 60.0764 58.5512 59.909C57.9315 59.7409 57.1999 59.6556 56.3816 59.6556C54.8221 59.6556 53.6339 59.9566 52.7801 60.5592C51.9263 61.1613 51.5011 61.9802 51.5011 63.0174C51.5011 64.0539 51.9113 64.8759 52.7303 65.485C53.6162 66.1562 54.8672 66.4924 56.4806 66.4924C57.1248 66.4924 57.7199 66.431 58.2687 66.3004C58.8174 66.1699 59.2951 66.006 59.7033 65.7825C60.4226 65.3509 60.8785 64.8163 61.0703 64.1827H59.779C59.3368 65.2788 58.2332 65.8272 56.4703 65.8272C55.2248 65.8272 54.2659 65.5589 53.6005 65.0219C53.0238 64.5612 52.7357 63.9669 52.7357 63.2349H61.2607C61.2607 62.1471 60.8805 61.2936 60.1196 60.6761L60.1066 60.6874Z" fill="white"/>
<path d="M73.8826 63.6582C73.8826 65.562 72.0487 66.5144 68.3783 66.5144C66.1794 66.5144 64.5755 66.186 63.5648 65.5304C62.7369 64.9909 62.3233 64.1684 62.3233 63.0633H63.7995C63.7995 64.8407 65.3249 65.7294 68.3776 65.7294C69.8402 65.7294 70.8988 65.5375 71.5512 65.1829C72.1027 64.8616 72.3791 64.3579 72.3791 63.6725C72.3791 62.9942 72.003 62.5185 71.2502 62.2461C70.8339 62.0995 69.7822 61.9141 68.1272 61.69C66.0442 61.4241 64.6956 61.1583 64.0753 60.8937C63.1812 60.5026 62.7239 59.8386 62.7239 58.9005C62.7239 58.0374 63.1041 57.3662 63.865 56.9496C64.6847 56.4817 66.0899 56.2468 68.0801 56.2468C71.6775 56.2468 73.4738 57.2464 73.4738 59.2462H71.9839C71.9839 57.7477 70.649 56.9996 67.9791 56.9996C66.64 56.9996 65.6607 57.1504 65.041 57.4503C64.4547 57.7727 64.1626 58.2448 64.1626 58.8683C64.1626 59.5204 64.5387 59.9775 65.2914 60.2434C65.6927 60.3971 66.8721 60.6105 68.8288 60.8841C70.6688 61.1142 71.9102 61.3848 72.5551 61.693C73.4335 62.0709 73.8723 62.7259 73.8723 63.657L73.8826 63.6582ZM85.88 64.6297C85.3142 65.0058 84.6816 65.2878 84.01 65.463C83.3152 65.6484 82.5365 65.7509 81.6745 65.7509C79.9076 65.7509 78.4969 65.3545 77.4124 64.5612C76.3279 63.7684 75.7976 62.7009 75.7976 61.38C75.7976 60.0038 76.3348 58.9315 77.409 58.1619C78.4832 57.393 79.9096 57.0092 81.6841 57.0092C83.4831 57.0092 84.8986 57.4121 85.9285 58.215C86.4424 58.578 86.856 59.0489 87.1344 59.5883C87.4047 60.1128 87.5228 60.7107 87.5228 61.3818C87.5228 62.7516 86.9795 63.8346 85.8909 64.6303M86.6758 65.2788C87.445 64.824 88.0148 64.2739 88.3827 63.6272C88.7506 62.981 88.9362 62.2336 88.9362 61.3878C88.9362 59.8702 88.3329 58.6543 87.129 57.7376C86.4847 57.2339 85.7067 56.8596 84.7962 56.6152C83.8851 56.3708 82.8416 56.248 81.6725 56.248C79.3978 56.248 77.6131 56.7082 76.3163 57.6327C75.0196 58.5571 74.3719 59.8071 74.3719 61.3878C74.3521 62.1078 74.52 62.8219 74.8613 63.4698C75.2025 64.1177 75.7076 64.6804 76.3341 65.1107C77.641 66.0549 79.4305 66.5264 81.6957 66.5264C82.4717 66.5341 83.247 66.484 84.0141 66.3762C84.6734 66.2754 85.2344 66.1216 85.6951 65.9136L87.8783 67.1796L88.7895 66.4799L86.6765 65.2806L86.6758 65.2788ZM99.9877 66.2766H89.8958V56.4936L91.2826 56.4721V65.4594H100L99.9877 66.2766Z" fill="white"/>
</svg>
