<svg width="167" height="67" viewBox="0 0 167 67" fill="none" xmlns="http://www.w3.org/2000/svg">
<path d="M101.794 44.8197H106.215V28.2706H101.794V44.8197ZM101.607 23.9924C101.607 22.5221 102.408 21.7872 104.012 21.7872C105.616 21.7872 106.418 22.5221 106.418 23.9924C106.418 24.6933 106.217 25.2385 105.817 25.6284C105.415 26.0183 104.814 26.2128 104.012 26.2128C102.408 26.2128 101.607 25.4727 101.607 23.9924Z" fill="white"/>
<path fill-rule="evenodd" clip-rule="evenodd" d="M83.9096 35.2719C85.3353 34.0383 86.0476 32.2576 86.0476 29.9285C86.0476 27.6883 85.3788 26.0032 84.0406 24.8731C82.7024 23.7442 80.7486 23.1786 78.1781 23.1786H71.4103V44.8197H75.9029V37.1222H77.8306C80.4584 37.1222 82.4849 36.5059 83.9096 35.2719ZM77.3813 33.3625H75.9029V26.9388H77.9463C79.1734 26.9388 80.0741 27.1949 80.6493 27.7082C81.224 28.2214 81.5116 29.0159 81.5116 30.0916C81.5116 31.1568 81.1687 31.9685 80.4825 32.5262C79.7962 33.0839 78.763 33.3625 77.3813 33.3625Z" fill="white"/>
<path d="M99.4496 28.0928C99.0535 28.004 98.5561 27.9596 97.9568 27.9596C96.9518 27.9596 96.022 28.2434 95.1673 28.8105C94.3163 29.3734 93.6163 30.1443 93.1306 31.0533H92.9136L92.2612 28.2706H88.9134V44.8197H93.3338V36.3972C93.3338 35.0649 93.7273 34.0284 94.5144 33.2883C95.3024 32.5482 96.4012 32.1781 97.812 32.1781C98.3243 32.1781 98.7587 32.2278 99.1164 32.326L99.4496 28.0928ZM120.045 43.7837C121.2 42.8952 121.777 41.6031 121.777 39.9054C121.777 39.0864 121.637 38.3808 121.357 37.7886C121.077 37.1964 120.641 36.6737 120.052 36.2195C119.463 35.7658 118.535 35.2776 117.269 34.7544C115.849 34.1721 114.929 33.7326 114.509 33.4367C114.089 33.1409 113.878 32.7907 113.878 32.3856C113.878 31.6654 114.531 31.3052 115.835 31.3052C116.569 31.3052 117.289 31.4187 117.994 31.645C118.699 31.8729 119.458 32.1635 120.27 32.5189L121.603 29.2626C119.757 28.3944 117.859 27.9601 115.907 27.9601C113.859 27.9601 112.277 28.362 111.162 29.1664C110.045 29.9708 109.487 31.1077 109.487 32.578C109.487 33.4367 109.62 34.1596 109.886 34.7466C110.151 35.3341 110.576 35.8547 111.162 36.3083C111.745 36.7625 112.662 37.256 113.907 37.7886C114.777 38.1638 115.473 38.4916 115.995 38.7728C116.516 39.0545 116.884 39.3059 117.096 39.528C117.309 39.7502 117.415 40.0387 117.415 40.3941C117.415 41.3412 116.613 41.8148 115.009 41.8148C114.226 41.8148 113.32 41.6815 112.292 41.4154C111.262 41.1489 110.337 40.8185 109.516 40.4234V44.1538C110.267 44.4775 111.049 44.7181 111.85 44.8714C112.681 45.0345 113.685 45.116 114.864 45.116C117.163 45.116 118.89 44.6723 120.045 43.7837ZM139.288 44.8197H134.868V35.1537C134.868 33.9599 134.672 33.0641 134.281 32.4672C133.889 31.8703 133.274 31.5713 132.433 31.5713C131.303 31.5713 130.481 31.9957 129.969 32.8445C129.457 33.6934 129.201 35.0894 129.201 37.0338V44.8197H124.781V28.2706H128.158L128.752 30.3874H128.998C129.433 29.6274 130.061 29.0326 130.882 28.6035C131.704 28.1744 132.646 27.9596 133.709 27.9596C136.134 27.9596 137.776 28.7692 138.636 30.3874H139.027C139.462 29.6175 140.102 29.0206 140.948 28.5962C141.793 28.1718 142.747 27.9596 143.81 27.9596C145.645 27.9596 147.035 28.441 147.976 29.4027C148.918 30.3649 149.389 31.9068 149.389 34.0284V44.8197H144.955V35.1537C144.955 33.9599 144.759 33.0641 144.368 32.4672C143.976 31.8703 143.36 31.5713 142.52 31.5713C141.438 31.5713 140.629 31.9664 140.092 32.7557C139.556 33.5454 139.288 34.7983 139.288 36.5153V44.8197Z" fill="white"/>
<path fill-rule="evenodd" clip-rule="evenodd" d="M162.702 42.5695L163.557 44.8197H166.644V33.7916C166.644 31.818 166.064 30.3477 164.905 29.3807C163.745 28.4138 162.078 27.9298 159.904 27.9298C157.634 27.9298 155.566 28.4284 153.702 29.4252L155.165 32.4745C156.914 31.6748 158.436 31.2755 159.73 31.2755C161.412 31.2755 162.252 32.1144 162.252 33.7916V34.5171L159.441 34.606C157.016 34.6948 155.202 35.1564 153.998 35.99C152.796 36.8242 152.195 38.1194 152.195 39.8756C152.195 41.5534 152.641 42.846 153.535 43.7539C154.429 44.6618 155.653 45.1155 157.209 45.1155C158.475 45.1155 159.501 44.9305 160.288 44.5604C161.076 44.1904 161.841 43.5271 162.585 42.5695H162.702ZM160.542 37.211L162.252 37.152V38.5135C162.252 39.5108 161.945 40.31 161.332 40.9116C160.719 41.5137 159.899 41.8148 158.875 41.8148C157.446 41.8148 156.731 41.1782 156.731 39.9054C156.731 39.0169 157.044 38.3562 157.673 37.9219C158.301 37.488 159.257 37.2507 160.542 37.211ZM48.8452 53.067L19.4309 61.9526C18.5323 62.2244 17.671 61.4305 17.8598 60.5048L28.3679 9.10441C28.5644 8.14372 29.8652 7.9911 30.2757 8.88122L49.732 51.0803C50.0989 51.8764 49.6803 52.8151 48.8452 53.067ZM53.8894 50.9711L31.3616 2.1099V2.10885C31.0817 1.50718 30.6476 0.994081 30.1053 0.623975C29.563 0.253869 28.9328 0.0405486 28.2814 0.00663325C26.9105 -0.0749049 25.6823 0.600398 24.9894 1.74977L0.556877 42.1686C0.185701 42.7792 -0.00739661 43.4852 0.000216747 44.2038C0.0078301 44.9225 0.215839 45.624 0.599863 46.2262L12.5428 65.1221C13.2547 66.2501 14.488 66.9029 15.7699 66.9029C16.1332 66.9029 16.4986 66.8506 16.8578 66.7419L51.5251 56.2695C52.047 56.1133 52.53 55.8446 52.9414 55.4814C53.3528 55.1181 53.683 54.6689 53.9098 54.1641C54.1337 53.6623 54.2479 53.1166 54.2444 52.5651C54.2408 52.0135 54.1197 51.4699 53.8894 50.9711Z" fill="white"/>
</svg>
