<svg width="57" height="49" viewBox="0 0 57 49" fill="none" xmlns="http://www.w3.org/2000/svg">
<path d="M33.1479 24.3298C33.1479 21.6403 30.8992 19.4597 28.125 19.4597C25.3511 19.4597 23.1021 21.6403 23.1021 24.3298C23.1021 27.0197 25.3511 29.2001 28.125 29.2001C30.8992 29.2001 33.1479 27.0197 33.1479 24.3298Z" fill="white"/>
<path fill-rule="evenodd" clip-rule="evenodd" d="M44.4382 15.2882C45.4989 11.109 46.8322 3.35902 42.132 0.731548C37.4537 -1.88447 31.3658 3.1283 28.1511 6.13721C24.9458 3.15829 18.6868 -1.83306 13.9906 0.80276C9.31408 3.42755 10.7562 11.049 11.8404 15.2544C7.47808 16.4557 0 19.0432 0 24.3298C0 29.6014 7.4703 32.4165 11.8068 33.6167C10.7186 37.8454 9.34867 45.3579 14.0311 47.9769C18.7449 50.6122 24.9844 45.7397 28.2289 42.6979C31.4642 45.7245 37.4936 50.6289 42.1729 48.0026C46.8668 45.3681 45.6443 37.722 44.5599 33.4922C48.7637 32.2894 56.25 29.5356 56.25 24.3298C56.25 19.0941 48.7318 16.4856 44.4382 15.2882ZM43.9054 31.2506C43.1934 29.0655 42.2325 26.7418 41.0571 24.3414C42.1791 21.9977 43.1027 19.704 43.7948 17.5329C46.9423 18.4177 53.8472 20.4399 53.8472 24.3298C53.8472 28.2562 47.2211 30.2976 43.9054 31.2506ZM40.9688 45.9862C37.4775 47.9456 32.2914 43.2555 29.9021 41.0267C31.4872 39.3457 33.0713 37.3916 34.6172 35.2217C37.3367 34.9879 39.9056 34.6054 42.2355 34.0832C42.9986 37.0751 44.4754 44.0181 40.9688 45.9862ZM15.2318 45.9583C11.7402 44.0062 13.3361 37.3024 14.1367 34.1874C16.4406 34.6817 18.9911 35.0372 21.717 35.2515C23.2731 37.3747 24.903 39.3264 26.5455 41.0357C24.5162 42.939 18.7397 47.9194 15.2318 45.9583ZM2.40279 24.3298C2.40279 20.3887 9.26638 18.3812 12.4857 17.4986C13.1897 19.7184 14.113 22.0395 15.2273 24.3866C14.0986 26.7686 13.1621 29.1264 12.4516 31.3725C9.38192 30.5205 2.40279 28.2733 2.40279 24.3298ZM15.1944 2.81914C18.7003 0.851548 24.1401 5.64343 26.4673 7.80024C24.8333 9.50163 23.2183 11.4386 21.6756 13.5497C19.0301 13.7874 16.4977 14.1692 14.1695 14.6807C13.2961 11.2888 11.6923 4.7846 15.1944 2.81914ZM36.3362 16.0821C38.1309 16.3016 39.8505 16.5937 41.4651 16.9511C40.9804 18.4575 40.3762 20.0327 39.6647 21.6474C38.6332 19.7499 37.5261 17.8905 36.3362 16.0821ZM28.1518 9.46519C29.2601 10.6293 30.3701 11.9293 31.4621 13.3397C29.2472 13.2381 27.0287 13.2377 24.8138 13.3382C25.9067 11.9409 27.0262 10.6428 28.1518 9.46519ZM16.6059 21.6457C15.9062 20.0366 15.3075 18.4545 14.8185 16.9266C16.4235 16.5784 18.135 16.2937 19.9181 16.0777C18.7249 17.8822 17.6196 19.7409 16.6059 21.6457ZM19.9693 32.7482C18.1273 32.5489 16.3899 32.2787 14.7854 31.9401C15.2821 30.3853 15.894 28.7691 16.6087 27.1252C17.6362 29.0499 18.7584 30.9266 19.9693 32.7482ZM28.2184 39.3591C27.0795 38.1675 25.9434 36.8496 24.834 35.4321C27.0615 35.5168 29.2933 35.517 31.5206 35.4206C30.4253 36.864 29.3192 38.1838 28.2184 39.3591ZM39.6876 27.0416C40.4394 28.7032 41.0732 30.3107 41.5766 31.8392C39.9456 32.2001 38.1847 32.4907 36.3294 32.7066C37.5281 30.8638 38.6529 28.9755 39.6876 27.0416ZM33.2762 32.9889C29.8689 33.225 26.4405 33.2224 23.0321 33.0082C21.0954 30.2653 19.3714 27.3806 17.8832 24.3859C19.3643 21.3973 21.0758 18.5182 23.0033 15.7796C26.4141 15.5297 29.8459 15.5289 33.2567 15.7811C35.1677 18.5196 36.8766 21.3911 38.3919 24.3527C36.8946 27.3397 35.1741 30.2246 33.2762 32.9889ZM40.9318 2.74987C44.4386 4.71101 42.8777 11.6761 42.1116 14.7049C39.7779 14.1827 37.2437 13.7942 34.5906 13.5527C33.0448 11.4188 31.4434 9.47846 29.8357 7.79904C32.1928 5.59577 37.4589 0.807916 40.9318 2.74987Z" fill="white"/>
</svg>
