<svg width="60" height="60" viewBox="0 0 60 60" fill="none" xmlns="http://www.w3.org/2000/svg">
<path d="M40.8503 40.4175C42.9261 40.2062 44.5009 38.4469 44.4293 36.3354C44.3578 34.2244 42.5681 32.5354 40.4207 32.5354H40.2776C38.0584 32.6057 36.3407 34.4355 36.4123 36.6171C36.4839 37.6727 36.9133 38.5875 37.5576 39.2209C35.1238 43.9361 31.4016 47.3844 25.8184 50.2699C22.0245 52.2403 18.0877 52.9442 14.1509 52.4516C10.9297 52.0294 8.42439 50.622 6.84939 48.2992C4.55895 44.8509 4.34428 41.121 6.27699 37.3912C7.6371 34.7169 9.78427 32.7463 11.1444 31.761C10.8581 30.8462 10.4285 29.298 10.2138 28.1721C-0.165385 35.5614 0.908419 45.5548 4.05799 50.2699C6.42004 53.7887 11.216 55.9704 16.513 55.9704C17.9445 55.9704 19.3761 55.8294 20.8078 55.4779C29.9702 53.7184 36.9135 48.3697 40.8503 40.4175ZM53.4486 31.6909C48.0084 25.4274 39.9913 21.9791 30.8289 21.9791H29.6839C29.0396 20.7124 27.6795 19.8677 26.1763 19.8677H26.0331C23.8142 19.9382 22.0965 21.7678 22.1679 23.9496C22.2396 26.0608 24.0289 27.7498 26.1763 27.7498H26.3194C27.8942 27.6795 29.2543 26.6942 29.8269 25.3569H31.1153C36.5556 25.3569 41.7092 26.9051 46.3622 29.9314C49.941 32.2537 52.518 35.28 53.9496 38.9394C55.1664 41.8952 55.0948 44.7806 53.8063 47.2438C51.8021 50.9736 48.438 53.0145 43.9999 53.0145C41.1366 53.0145 38.4167 52.17 36.9849 51.5366C36.1976 52.2403 34.7659 53.3662 33.7637 54.0703C36.8419 55.4777 39.9913 56.2519 42.9977 56.2519C49.8694 56.2519 54.9518 52.5217 56.8845 48.792C58.9601 44.7101 58.8169 37.6727 53.4486 31.6909ZM17.0856 41.6136C17.1572 43.7248 18.9467 45.4136 21.0941 45.4136H21.2374C23.4562 45.3435 25.1741 43.5137 25.1025 41.3321C25.0311 39.2207 23.2414 37.5319 21.0941 37.5319H20.9511C20.8078 37.5319 20.5929 37.5319 20.4501 37.602C17.5151 32.8166 16.2983 27.609 16.7278 21.9789C17.0139 17.7564 18.4457 14.0968 20.9511 11.0706C23.0267 8.46665 27.0352 7.19992 29.7555 7.12972C37.3429 6.98887 40.5638 16.2784 40.7786 20.0083C41.7092 20.2194 43.284 20.7122 44.3578 21.0641C43.4987 9.6634 36.3407 3.75183 29.4692 3.75183C23.0267 3.75183 17.0856 8.32625 14.7233 15.0823C11.4307 24.0902 13.5781 32.7463 17.5865 39.5728C17.2288 40.0654 17.0139 40.8394 17.0856 41.6136Z" fill="white"/>
</svg>
