<svg width="60" height="60" viewBox="0 0 60 60" fill="none" xmlns="http://www.w3.org/2000/svg">
<path d="M51 0C55.97 0 60 4.03 60 9V51C60 55.971 55.97 60 51 60H9C4.029 60 0 55.971 0 51V9C0 4.03 4.029 0 9 0H51ZM27.305 33.282H34.805V28.477H13.828V33.282H21.328V54.727H27.305V33.282ZM37.148 53.555C38.098 54.047 39.258 54.411 40.547 54.657C41.836 54.903 43.242 55.02 44.648 55.02C46.055 55.02 47.344 54.891 48.633 54.621C49.922 54.352 50.976 53.907 51.914 53.332C52.863 52.711 53.672 51.926 54.14 50.871C54.609 49.817 54.973 48.645 54.973 47.121C54.973 46.055 54.808 45.129 54.492 44.309C54.176 43.489 53.719 42.786 53.086 42.2C52.488 41.578 51.797 41.028 50.976 40.559C50.156 40.09 49.219 39.598 48.164 39.153C47.39 38.836 46.758 38.532 46.055 38.227C45.445 37.922 44.918 37.618 44.531 37.313C44.098 36.996 43.769 36.668 43.535 36.328C43.301 35.977 43.183 35.59 43.183 35.157C43.183 34.758 43.288 34.395 43.5 34.067C43.712 33.739 44.004 33.469 44.379 33.235C44.754 33 45.223 32.825 45.785 32.696C46.336 32.567 46.945 32.508 47.66 32.508C48.152 32.508 48.668 32.544 49.183 32.618C49.723 32.692 50.273 32.806 50.824 32.958C51.375 33.111 51.914 33.298 52.465 33.532C52.98 33.767 53.461 34.036 53.871 34.341V28.833C52.98 28.493 51.996 28.236 50.941 28.071C49.887 27.907 48.715 27.825 47.308 27.825C45.902 27.825 44.613 27.978 43.324 28.271C42.035 28.564 40.98 29.032 40.043 29.677C39.094 30.31 38.402 31.083 37.816 32.138C37.265 33.122 36.996 34.247 36.996 35.653C36.996 37.411 37.5 38.935 38.519 40.107C39.527 41.396 41.098 42.333 43.09 43.271C43.898 43.599 44.613 43.927 45.316 44.243C46.019 44.56 46.605 44.888 47.074 45.228C47.578 45.568 47.976 45.943 48.246 46.341C48.539 46.739 48.691 47.208 48.691 47.747C48.691 48.122 48.6 48.474 48.422 48.802C48.244 49.13 47.965 49.411 47.59 49.646C47.215 49.88 46.758 50.068 46.183 50.208C45.633 50.337 45.012 50.407 44.191 50.407C42.902 50.407 41.613 50.185 40.441 49.739C39.152 49.294 37.98 48.626 37.148 47.93V53.555Z" fill="white"/>
</svg>
